STARTFONT 2.1
FONT -Custom-Font-Medium-R-Normal--12-120-75-75-M-70-ISO10646-1
SIZE 12 75 75
FONTBOUNDINGBOX 8 8 0 -2
CHARS 2
STARTCHAR A
ENCODING 65
SWIDTH 500 0
DWIDTH 8 0
BBX 8 8 0 -2
BITMAP
18
3C
66
C3
FF
C3
C3
00
ENDCHAR
STARTCHAR B
ENCODING 66
SWIDTH 500 0
DWIDTH 8 0
BBX 8 8 0 -2
BITMAP
FC
C6
C6
FC
C6
C6
FC
00
ENDCHAR
ENDFONT